<svg xmlns="http://www.w3.org/2000/svg" width="800" height="800" viewBox="0 0 411.184 411.184"><g fill="#fff"><path d="M10.592 100.678h113.05v81.553H10.59zM123.64 12.583C123.64 5.643 117.996 0 111.058 0H23.175c-6.937 0-12.583 5.644-12.583 12.583v63.99h113.05v-63.99zM123.64 375.985v-63.993H10.593v63.993c0 6.938 5.646 12.58 12.583 12.58h87.882c6.938 0 12.584-5.642 12.584-12.58zM67.117 338.68c6.396 0 11.598 5.204 11.598 11.6 0 6.397-5.202 11.6-11.598 11.6s-11.6-5.202-11.6-11.6 5.204-11.6 11.6-11.6zM10.592 206.336h113.05v81.553H10.59zM247.544 150.212l-93.528-52.508L138 126.232V177.5l71.645 40.222zM288.365 77.5a11.94 11.94 0 0 0 1.09-9.12 11.92 11.92 0 0 0-5.68-7.218l-72.605-40.76a12.003 12.003 0 0 0-5.865-1.54c-4.336 0-8.348 2.35-10.47 6.13l-29.717 52.93 93.527 52.51 29.72-52.933zM138 318.318v27.015l11.532-20.54zM198.537 237.502L138 203.515v88.788l22.636 12.708zM263.952 161.665L249.79 173.02l-31.287 55.728 52.128 65.03 60.41-48.423-66.177-82.552zM397.96 176.333l-52.074-64.966a11.944 11.944 0 0 0-9.368-4.496c-2.713 0-5.378.938-7.5 2.64l-47.364 37.966 67.085 83.69 47.365-37.967c5.16-4.14 5.993-11.706 1.855-16.867z"/><path d="M141.327 366.215v9.77c0 11.635-9.466 21.1-21.103 21.1H102.89l7.7 9.603a11.95 11.95 0 0 0 9.367 4.495c2.715 0 5.377-.937 7.5-2.637l47.364-37.97-21.14-26.374-12.353 22.013zM165.657 322.875l26.865 33.514 60.408-48.423-46.4-57.89z"/></g></svg>