<svg xmlns="http://www.w3.org/2000/svg" viewBox="0 0 41.597 41.597"><path d="M38.634 30.313l-.532-.61c-.64-.735-1.02-1.66-1.197-2.91-.042-.3-.075-.61-.108-.92-.05-.488-.105-.995-.198-1.5a6.31 6.31 0 0 0-.818-2.186c-.597-.97-.648-1.82-.155-2.53a5.64 5.64 0 0 0 .843-1.88c.158-.642.26-1.242.308-1.833.125-1.488.322-2.916 1.34-4.02l.4-.433c.16-.173.205-.395.122-.592-.165-.395-.738-.495-1.19-.51a69.654 69.654 0 0 0-1.212-.035c-.72 0-1.47-.178-2.366-.56l-.574-.25c-.496-.22-1.01-.446-1.54-.636-1.128-.4-2.163-.49-3.39-.23-.113 0-.318-.098-.657-.564a15.776 15.776 0 0 1-.558-.857c-.302-.484-.615-.985-.903-1.3a6.958 6.958 0 0 0-.93-.846 66.887 66.887 0 0 0-.683-.51l-.13-.096a64.62 64.62 0 0 1-.69-.512c-.84-.636-1.397-1.245-1.752-1.92a6.37 6.37 0 0 1-.224-.494l-.345-.805c-.11-.29-.297-.773-.78-.773-.474.024-.62.562-.696.85l-.156.498c-.444 1.38-1.48 2.25-2.438 2.92-.56.39-1.04.76-1.464 1.128-1.123.972-1.802 2.127-2.02 3.436-.05-.002-.11-.01-.23-.04-.336-.08-.797-.19-1.118-.228a5.882 5.882 0 0 0-2.438.25c-.68.213-1.31.493-1.937.77l-.454.2c-.878.382-1.677.567-2.44.568-.158 0-.325-.02-.538-.046a9.21 9.21 0 0 0-.505-.052l-.493-.038a3.1 3.1 0 0 0-.344-.026c-.423 0-.604.188-.68.346-.068.14-.134.432.2.8l.516.564c.674.74 1.055 1.636 1.234 2.905.042.303.076.62.108.923.05.488.105.993.198 1.497.15.81.424 1.545.817 2.184.596.97.648 1.82.154 2.53a5.63 5.63 0 0 0-.843 1.877c-.155.63-.258 1.247-.307 1.836-.07.836-.155 1.526-.34 2.176-.27.948-.914 1.778-1.224 2.177-.066.084-.12.152-.152.2-.14.198-.16.424-.06.62.15.287.538.413 1.167.443.495-.014.995-.026 1.136-.026.776 0 1.594.206 2.578.648.64.288 1.304.586 2.004.826 1.11.377 2.123.456 3.306.2.373 0 .92.943 1.362 1.7a6.39 6.39 0 0 0 1.682 1.866c.33.252.67.502 1.04.775l.436.324c.85.632 1.415 1.248 1.783 1.94.077.142.143.3.242.536l.444 1.017c.2.452.484.52.636.52.134 0 .463-.057.633-.585l.246-.763c.446-1.382 1.482-2.25 2.437-2.918a17.902 17.902 0 0 0 1.432-1.102c1.16-.993 1.832-2.13 2.052-3.464.05.002.1.01.15.02l.573.14c.998.23 2.024.182 3.063-.144.69-.216 1.328-.5 1.945-.772l.445-.197c.888-.385 1.65-.565 2.398-.565.34 0 .682.04.972.078l.802.107c.575.077.754-.212.808-.328.062-.137.12-.422-.204-.792zm-3.407-1.24c-.11.192-.34.338-.667.42a9.67 9.67 0 0 0-1.484.51l-.48.213c-.588.26-1.142.506-1.716.685-1.05.332-2.015.25-2.99-.258a15.448 15.448 0 0 0-.407-.2l-.598-.29a.69.69 0 0 0-.64 0c-.307.174-.338.553-.355.765l-.06.65c-.02.277-.042.54-.08.792-.124.895-.584 1.673-1.403 2.375-.384.33-.802.65-1.277.98-.536.375-1.01.762-1.41 1.15-.27.26-.542.418-.85.46-.35 0-.792-.414-1.056-.66a4.396 4.396 0 0 0-.184-.168 11.213 11.213 0 0 0-.615-.49l-.484-.36a85.198 85.198 0 0 1-.976-.73c-1.13-.86-1.688-1.954-1.707-3.303 0-.005-.02-.306-.047-.606-.015-.158-.118-.526-.768-.526-.42 0-.997.146-1.407.268-.723.214-1.337.347-1.605.347-.442 0-.903-.082-1.373-.242-.627-.214-1.228-.486-1.865-.773a10.054 10.054 0 0 0-1.568-.568c-.777-.205-.77-1.016-.63-1.66.154-.705.228-1.425.28-2.037.04-.5.125-.998.257-1.527.235-.94.756-1.67 1.598-2.233.14-.096.282-.188.435-.287l.614-.402a.65.65 0 0 0 .308-.544c0-.25-.145-.487-.398-.653l-.896-.586c-.96-.616-1.537-1.504-1.76-2.716-.08-.43-.126-.865-.176-1.346-.034-.323-.07-.658-.117-.99a9.224 9.224 0 0 0-.305-1.415c-.072-.236-.062-.436.028-.595.11-.192.34-.336.668-.417.48-.12.98-.292 1.492-.513l.477-.21c.588-.26 1.143-.506 1.716-.686 1.044-.326 2-.248 2.962.245l.86.426c.174.088.548.23.813.083a.686.686 0 0 0 .335-.548l.078-.874c.022-.277.044-.538.08-.79.125-.89.576-1.66 1.376-2.353.376-.325.804-.654 1.306-1.005.535-.374 1.01-.76 1.41-1.15.55-.534 1.077-.624 1.496-.19.334.345.717.68 1.172 1.023.235.178.475.355.708.526.26.19.53.39.79.588 1.054.8 1.58 1.84 1.706 3.372l.044.535c.01.122.092.52.73.52.324 0 .795-.095 1.44-.287a7.85 7.85 0 0 1 1.647-.322c.385-.03.817.054 1.404.263.47.166.925.368 1.405.58l.597.26c.522.223 1.004.39 1.475.507.69.173.666.983.522 1.633-.155.7-.227 1.39-.28 2.034a9.798 9.798 0 0 1-.26 1.53c-.234.948-.764 1.685-1.62 2.25l-.902.594c-.268.176-.42.424-.42.68 0 .217.11.412.3.537l.987.645c.962.616 1.54 1.504 1.76 2.716.082.44.128.88.18 1.37.033.316.067.644.113.97.07.502.172.978.3 1.41.07.236.06.437-.03.597zm-6.143-7.78a6.99 6.99 0 0 0-.437-.074c-.17-.026-.34-.05-.506-.094-.206-.053-.453-.153-.45-.327.004-.163.243-.267.443-.324.134-.04.274-.066.413-.082.934-.102 1.855-.38 2.902-.877 1.038-.493 1.832-1.315 2.36-2.444.488-1.044.533-2.178.126-3.194-.395-.986-1.187-1.79-2.118-2.15-1.5-.583-2.995-.46-4.348.364-1.005.61-1.787 1.316-2.39 2.158-.207.29-.392.462-.6.565-.21.103-.313-.04-.32-.182a1.5 1.5 0 0 1 .143-.695c.327-.726.546-1.54.672-2.486.182-1.377-.103-2.623-.846-3.703-.97-1.408-2.585-2.072-4.173-1.708-1.798.413-3.27 2.208-3.352 4.086-.057 1.31.155 2.528.63 3.618.12.27.227.562.22.86 0 .096-.024.255-.164.255a.383.383 0 0 1-.18-.053c-.25-.133-.433-.357-.58-.557a7.9 7.9 0 0 0-1.058-1.173c-1.454-1.313-2.9-1.852-4.573-1.654-1.95.233-3.484 1.92-3.495 3.838-.006 1.165.436 2.237 1.314 3.187 1.086 1.175 2.544 1.603 3.828 1.867.14.03.28.05.42.07.174.027.35.053.52.098.16.042.43.14.433.317.003.165-.248.272-.458.332a2.187 2.187 0 0 1-.375.076c-.93.1-1.88.383-2.905.87-1.047.495-1.844 1.315-2.368 2.436-.522 1.115-.552 2.223-.088 3.293.665 1.54 2.064 2.423 3.838 2.423.833 0 1.663-.206 2.336-.578 1.076-.595 1.957-1.363 2.62-2.284.194-.272.378-.452.58-.566a.39.39 0 0 1 .187-.06c.152 0 .17.19.17.27 0 .24-.063.497-.194.784-.437.958-.64 2.007-.68 3.52.005 1.174.593 2.394 1.612 3.343.713.663 1.562 1 2.522 1 .28 0 .572-.03.867-.088 1.883-.373 3.424-2.316 3.436-4.333.01-1.3-.21-2.424-.668-3.44-.14-.313-.202-.57-.194-.814.005-.124.103-.312.334-.193.258.134.45.367.604.58.31.42.666.812 1.06 1.17 1.25 1.13 2.53 1.68 3.91 1.68.218 0 .44-.015.67-.043 1.93-.238 3.456-1.913 3.473-3.814.01-1.182-.437-2.267-1.33-3.223-1.076-1.153-2.52-1.582-3.79-1.85zm.995 4.882c-.232.388-.723.53-1.254.366-.87-.268-1.566-.85-2.203-1.42-.123-.11-.243-.223-.363-.335-.308-.288-.626-.586-.985-.842-.82-.587-1.59-.733-2.36-.468-1.157.395-1.797 1.476-1.63 2.754.056.426.152.845.248 1.263.098.426.19.828.24 1.24.095.77.152 1.405-.04 2.02-.144.46-.504.763-.935.77-.404 0-.776-.312-.926-.777a2.102 2.102 0 0 1-.092-.438c-.103-1.06.133-2.094.36-3.094.13-.572.278-1.22.144-1.92a2.372 2.372 0 0 0-2.32-1.938c-.238 0-.476.037-.707.11-.61.19-1.082.568-1.5.946l-.317.29c-.614.567-1.195 1.1-1.89 1.5-.408.233-.76.39-1.188.398-.414 0-.676-.14-.85-.457-.18-.33-.16-.638.072-1 .206-.323.526-.54.843-.73.71-.42 1.504-.68 2.322-.932.334-.1.668-.206.99-.338 1.134-.465 1.77-1.327 1.745-2.365-.028-1.078-.61-1.855-1.733-2.312a16.193 16.193 0 0 0-1.274-.435l-.215-.067a9.11 9.11 0 0 1-1.792-.756 2.988 2.988 0 0 1-.67-.488c-.41-.412-.51-.878-.278-1.28.23-.4.71-.552 1.243-.39.87.265 1.566.845 2.206 1.416.127.113.25.23.376.345.304.285.618.58.97.834.81.588 1.58.745 2.355.49 1.155-.374 1.82-1.476 1.657-2.742-.06-.457-.16-.904-.257-1.336a21.753 21.753 0 0 1-.154-.717c-.148-.76-.19-1.438-.13-2.076.025-.255.098-.488.216-.692a.923.923 0 0 1 1.61.005c.23.396.257.85.23 1.674.012.457-.12 1.023-.26 1.623-.07.295-.14.598-.198.903-.085.452-.168.982-.058 1.55a2.37 2.37 0 0 0 2.32 1.92c.23 0 .46-.036.682-.104.624-.19 1.11-.583 1.505-.94l.35-.32c.623-.572 1.212-1.114 1.922-1.51.388-.214.72-.36 1.143-.372.405 0 .664.137.838.443.19.334.166.66-.074 1.026-.2.306-.5.52-.885.743-.72.417-1.526.677-2.29.907-.453.136-.894.277-1.317.5-.91.482-1.394 1.233-1.396 2.172-.002.94.476 1.694 1.383 2.18.493.263 1.013.42 1.517.57l.302.09a8.842 8.842 0 0 1 1.826.77c.285.163.483.306.643.465.425.422.53.898.284 1.308zm-6.46-5.384a2.81 2.81 0 0 1-.83 2.004 2.778 2.778 0 0 1-1.98.827h-.025a2.832 2.832 0 0 1-2.8-2.814c-.002-.755.292-1.467.83-2.004a2.78 2.78 0 0 1 1.976-.825c1.57.014 2.827 1.277 2.83 2.814z" fill="#fff"/></svg>