<svg xmlns="http://www.w3.org/2000/svg" viewBox="0 0 47.4 47.4"><path d="M47.306 22.274c-.295-1.812-1.2-3.452-2.552-4.618a7.622 7.622 0 0 0-4.92-1.83h-.06a6.83 6.83 0 0 0-1.585.173c-3.65.858-6.037 3.958-5.94 7.712.022.785-.192 1.47-.634 2.034a3.266 3.266 0 0 1-2.55 1.228c-.295 0-.587-.04-.868-.12-1.314-.373-2.298-1.45-2.446-2.68-.18-1.46.372-2.565 1.638-3.283 2.882-1.634 4.386-4.875 3.74-8.062-.727-3.597-3.792-6.11-7.454-6.11-.402 0-.81.03-1.208.092-1.92.29-3.703 1.39-4.89 3.016-1.196 1.64-1.686 3.605-1.377 5.534.394 2.446 1.697 4.32 3.877 5.574.942.54 1.475 1.347 1.586 2.394a3.23 3.23 0 0 1-.798 2.49 3.44 3.44 0 0 1-2.5 1.16h-.07c-.867 0-1.742-.38-2.34-1.02-.58-.616-.866-1.45-.807-2.346.032-.5-.01-1.038-.13-1.643a7.648 7.648 0 0 0-2.647-4.44A7.598 7.598 0 0 0 7.58 15.83c-.466 0-.94.042-1.408.126-1.956.35-3.732 1.527-4.873 3.224C.16 20.875-.257 22.957.155 24.895c.76 3.588 3.826 6.094 7.454 6.094a7.33 7.33 0 0 0 3.806-1.06 2.86 2.86 0 0 1 1.8-.42c1.734.197 2.958 1.606 2.913 3.352-.014.496.01.933.07 1.337a7.68 7.68 0 0 0 2.532 4.648 7.41 7.41 0 0 0 5.635 1.795c1.59-.163 2.944-.683 4.027-1.544 1.07-.852 1.9-2.054 2.47-3.574.34-.91.385-1.835.408-2.952.03-1.476 1.252-3.068 3.17-3.068.54 0 1.05.14 1.518.412 1.204.703 2.49 1.06 3.82 1.06.422 0 .852-.035 1.28-.103 1.957-.31 3.693-1.39 4.89-3.043 1.19-1.647 1.67-3.62 1.356-5.558zM7.578 26.87c-.923 0-1.79-.362-2.444-1.016S4.12 24.33 4.12 23.41a3.426 3.426 0 0 1 3.463-3.464c.93.003 1.8.365 2.45 1.02a3.425 3.425 0 0 1 1.01 2.444c-.008 1.875-1.594 3.46-3.465 3.46zm12.656-12.607c.012-1.9 1.56-3.444 3.452-3.444a3.467 3.467 0 0 1 2.47 1.035 3.442 3.442 0 0 1 1 2.466c-.015 1.885-1.57 3.418-3.462 3.418h-.008c-1.915-.014-3.463-1.573-3.452-3.475zm3.46 22.314c-.92 0-1.788-.363-2.443-1.02a3.45 3.45 0 0 1-1.016-2.47c.01-1.89 1.563-3.43 3.463-3.43 1.914.008 3.464 1.56 3.46 3.46a3.474 3.474 0 0 1-3.462 3.46zm16.13-9.708h-.004a3.44 3.44 0 0 1-2.455-1.03 3.44 3.44 0 0 1-1.013-2.457 3.422 3.422 0 0 1 1.024-2.434c.565-.56 1.214-.84 1.616-1 .253-.39.696-.432.764-.436l.06-.002c.03 0 .6.007.867.515l.096.037.36.14a3.47 3.47 0 0 1 2.133 3.227c-.01 1.888-1.556 3.43-3.45 3.438z" fill="#fff"/></svg>