<svg xmlns="http://www.w3.org/2000/svg" width="800" height="800" viewBox="0 0 571.106 571.107"><g fill="#fff"><path d="M181.887 364.903c.9.1 1.7.1 2.6.1 27.6 0 79.5-26.5 109.4-99.4 9.5-23.2 10.1-41.3 1.7-53.8-5.4-8.1-14.2-13.3-25.8-15.5 9.5-5.8 20-10.3 24.8-12.1 9.2-2.7 15.7-1.8 20.1 3.1 8.7 9.8 8.1 32.5 7.1 40.4-.5 4.1 1.9 8.1 5.8 9.6s8.3.2 10.7-3.2c17.1-23.9 14-53.8 13.9-54.9-3.8-42.8-28.9-49.2-43.5-49.2-16.2 0-36.2 7.3-59.5 21.6-19.2 11.8-74.5 62-73.7 110.8.4 22.9 13.4 36.3 35.7 36.8-9.2 7.9-18.3 11.2-28.1 9.6-22.5-3.8-17.1-38.3-16.9-39.7.8-4.6-2-9-6.4-10.3-4.5-1.3-9.2.9-11 5.1-13 29.9-13.3 58.8-.9 79.2 8.3 12.9 20.6 20.9 34 21.8z"/><path d="M519.087 66.403c-21.9-19.5-49.5-29.3-81.9-29.3-85.8 0-177.2 68.8-181 71.7-3.9 3-4.8 8.8-1.9 12.8s8.4 5.6 12.5 2.8l3-1c24.9-16 56.3-26.6 86.3-22.3 12.3 1.8 24.7 7.8 31.1 18.5 6.3 10.4 6.2 23.3 5 35.4-6.7 67.7-41.9 129.5-90.4 176.3-30.4 29.3-72.9 61.9-116.9 64.8-20.5 1.3-35.4-3.4-45.3-13.9-14.9-15.8-13.6-40.1-13.6-40.3.2-3.8-1.9-7.4-5.4-8.9-3.4-1.6-7.5-.9-10.2 1.9-16.5 16.5-20.3 49.2-20.6 73.5-48-86.1 34-222.3 34.9-223.8 2.1-3.5 1.7-8-1.1-11s-7.2-3.8-10.9-1.9c-58.8 30.2-100.1 143.4-101.8 148.3-19.3 55.8-12.6 116.5 17.4 158.6 25.5 35.7 65.8 55.4 113.5 55.4 44.1 0 93.7-16.1 147.4-47.8 167.6-98.9 205.3-247.1 213.8-307.5 41.5 83.8-28.2 203.1-29 204.3-2.3 3.8-1.5 8.8 1.9 11.6 3.4 2.9 8.4 2.9 11.8 0 47.4-40 82.4-122.1 83.4-195.4.7-55.9-17.2-101.8-52-132.8z"/></g></svg>