<svg xmlns="http://www.w3.org/2000/svg" width="800" height="800" viewBox="0 0 412.287 412.287"><path d="M380.546 110.125L211.552 1.585a9.997 9.997 0 0 0-10.807 0l-169 108.496a10 10 0 0 0-4.6 8.42l.042 180.04a10.004 10.004 0 0 0 4.767 8.52l168.96 103.75a9.99 9.99 0 0 0 5.234 1.478c1.814 0 3.63-.49 5.232-1.48L380.352 307.1a10 10 0 0 0 4.767-8.52l.022-180.038c0-3.405-1.733-6.577-4.596-8.417zm-174.4-84.498l61.937 39.63-61.936 39.626-61.934-39.627 61.934-39.63zM50.197 291.254v-63.938l60.693 36.848.01 64.377-60.703-37.286zm60.703-53.63l-60.704-37.286v-64.74L110.9 174.44v63.183zm-47.68-120.79l59.186-37.87 59.186 37.87-59.186 37.87-59.186-37.87zm70.688 57.606l60.705-38.844v64.742l-60.705 37.285V174.44zm.03 103.487l40.348 25.815-40.348 24.783v-50.598zm60.704 102.025l-50.232-30.854 50.232-30.847v61.702zm11.496-82.912l-62.076-38.765 62.076-38.592 62.076 38.733-62.076 38.624zm11.515 82.912v-61.645l50.194 30.812-50.194 30.832zm60.705-51.38l-40.388-24.806 40.388-25.842v50.647zm.03-90.902l-60.703-37.287v-64.736l60.703 38.842v63.18zm-47.68-120.79l59.186-37.868 59.186 37.867-59.186 37.868-59.186-37.87zM362.104 291.3L301.4 328.586v-63.17l60.704-37.983V291.3zm0-90.917L301.4 237.67v-63.182l60.704-38.844v64.74z" fill="#fff"/></svg>