<svg xmlns="http://www.w3.org/2000/svg" width="800" height="800" viewBox="0 0 187.411 187.411"><path d="M184.428 44.97C170.588 1.86 100.293.444 87.994 41.548 71.444 8.125 24.296 7.487 6.34 43.59c-24.76 49.78 28.093 111.248 70.717 130.2.246.11.486.158.718.17.413.723 1.03 1.315 1.877 1.546 7.35 2.01 19.017-8.444 24.546-11.86 5.945-3.67 12.227-7.22 18.378-10.95.323.176.637.387.965.548 1.867.932 3.68-1.114 2.63-2.76 4.496-2.82 8.87-5.768 12.925-8.977 28.55-22.58 57.883-57.447 45.333-96.536zm-9.948-1.92c-1.867-1.39-3.646-2.624-4.972-3.646-8.526-6.57-17.394-12.708-26.365-18.66 13.023 2.232 24.99 9.69 31.337 22.306zm-36.965-22.91c.1.252.253.493.527.68 14.578 9.946 27.966 20.417 40.114 32.944.233 1.13.472 2.26.63 3.447.084.648.13 1.292.19 1.936-8.36-6.377-17.398-11.964-25.605-18.595-7.792-6.297-15.257-13.097-22.135-20.413 2.09-.143 4.19-.115 6.28.003zM77.807 170.043c-15.458-9.09-31.253-22.884-43.835-39.047 1.752 1.658 3.47 3.254 5.076 4.77 12.067 11.405 25.875 24.295 40.138 33.358-.583.19-1.066.488-1.38.92zm5.774-2.41c-9.676-11.475-24.108-20.154-35.507-29.81-11.483-9.724-21.938-19.855-30.027-32.38-2.664-5.627-4.807-11.378-6.38-17.174 10.147 14.42 22.988 27.62 35.195 40.192 12.534 12.904 28.158 27.645 45.685 33.455-2.95 2.155-6.108 4.345-8.964 5.715zm20.226-13.455c-18.503-8.804-34.17-25.727-48.666-39.614a558.525 558.525 0 0 1-26.35-27.01c-5-5.483-9.39-13.31-15.087-17.95-.427-.347-.963-.112-1.025.426-.62 5.312 7.15 12.364 10.2 16.072 9.09 11.044 19.17 21.344 29.25 31.476 10.344 10.4 21.103 20.428 32.51 29.657 3.79 3.067 8.95 7.864 14.286 10.067a88.448 88.448 0 0 0-2.734 1.934c-.124-.12-.24-.247-.414-.34-17.17-9.172-31.776-19.986-45.897-33.45-13.46-12.832-24.747-28.15-38.64-40.442-.13-.115-.284-.146-.437-.162-1.37-5.97-2.114-11.978-2.048-17.947a46.04 46.04 0 0 1 1.695-11.802c33.694 31.02 63.74 65.813 98.117 96.082-1.59.996-3.17 2.007-4.76 3.003zm9.36-5.91C78.236 117.65 47.82 81.9 10.91 53.576a46.08 46.08 0 0 1 3.63-8.444c16.737 24.147 39.12 43.57 60.497 63.508 9.538 8.896 18.666 18.218 28.15 27.173 3.71 3.5 7.56 7.717 11.714 11.36l-1.734 1.095zm6.813-4.3c-33.9-34.345-74.645-62.59-104.227-100.92 1.324-2.125 2.843-4.11 4.494-5.975 29.544 38.68 70.802 66.543 101.21 104.61.305.383.645.592.992.724l-2.47 1.56zm9.318-5.885c-1.274.81-2.554 1.612-3.83 2.42.22-.77.167-1.63-.43-2.402C95.237 99.557 53.6 72.43 21.787 35.646c-.036-.04-.08-.056-.12-.09a42.94 42.94 0 0 1 5.442-4.692c33.952 35.134 67.7 71.046 103.45 104.304.736.687 1.58.767 2.328.54a130.683 130.683 0 0 1-3.59 2.376zm4.945-3.305c.684-.874.854-2.106-.196-3.1-35.273-33.38-67.29-71.37-104.893-102.224a40.62 40.62 0 0 1 8.62-4.174c13.214 22.694 34.98 40.324 54.512 57.333 9.662 8.413 19.59 16.53 28.043 26.174 4.513 5.15 12.096 15.965 19.238 17.38 1.51.3 3.05-1.26 2.107-2.742-3.685-5.8-10.515-10.51-15.28-15.474-8.677-9.032-17.677-17.228-27.292-25.302C77.73 64.698 56.19 47.525 39.948 24.594c.81-.23 1.614-.47 2.446-.65 19.15-4.134 33.22 9.615 40.38 25.51-3.783-3.66-7.557-7.328-11.413-10.91C65.5 33.1 59.024 25.718 50.965 24.138c-.692-.136-1.122.77-.488 1.157C58.83 30.4 66.434 39.32 73.422 46.105c11.234 10.91 22.056 22.248 32.91 33.53 8.243 8.568 16.472 17.136 24.652 25.76 3.552 3.746 13.298 17.476 19.903 15.518.015-.004.022-.012.036-.017-5.314 5.197-10.984 9.885-16.68 13.882zm17.85-15c.25-.858-.21-1.91-1.203-2.31-8.3-3.335-16.997-16.487-23.023-22.843-8.26-8.71-16.82-17.136-25.286-25.646-4.178-4.202-8.385-8.376-12.605-12.536 1.444-.65 2.465-2.148 1.942-4.226-.13-.516-.296-1-.438-1.504.243-.838.544-1.628.83-2.432 3.1 9.93 17.21 19.61 23.698 25.33 14.192 12.51 29.33 23.914 43.232 36.757.284.263.586.412.89.504a121.536 121.536 0 0 1-8.037 8.903zm10.488-12.02c-.09-.148-.15-.3-.29-.443-11.58-11.888-25.616-21.65-38.478-32.08-10.033-8.133-24.188-17.778-30.398-29.774 1.216-2.8 2.713-5.34 4.398-7.678.974 2.73 3.523 6.88 4.08 7.562 5.086 6.252 10.983 11.544 17.154 16.7 15.336 12.818 29.786 26.804 45.403 39.233.846.674 1.824.597 2.563.162a102.234 102.234 0 0 1-4.432 6.318zm5.525-8.046c0-.476-.188-.972-.674-1.42-15.713-14.53-32.117-27.64-48.84-40.915-7.183-5.705-14.708-11.984-18.993-20.24-.105-.203-.246-.592-.424-1.032.243.126.463.293.712.41.166.09.304-.148.147-.252-.29-.193-.522-.317-.758-.445a40.53 40.53 0 0 1 4.23-4.43c8.915 13.23 20.5 24.912 31.732 36.033 8.757 8.673 22.367 25.326 34.98 28.613-.68 1.237-1.364 2.472-2.11 3.68zm3.724-6.74c-3.807-4.515-9.962-7.737-14.5-11.397-6.663-5.372-13.037-11.117-19.327-16.915-11.72-10.8-22.756-22.34-32.55-34.902a42.37 42.37 0 0 1 4.176-2.914c11.098 10.454 21.897 21.2 32.885 31.768 9.594 9.227 20.54 20.43 32.883 25.883.026.012.055.01.082.02a77.37 77.37 0 0 1-3.65 8.457zm4.79-11.983c-10.413-8.455-21.42-16.014-31.518-24.966-11.26-9.98-21.97-20.595-33.404-30.375a45.59 45.59 0 0 1 6.594-2.914c9.046 10.44 18.903 20.102 29.212 29.305 8.45 7.545 19.457 18.99 30.596 23.058a64.547 64.547 0 0 1-1.48 5.89zm2.21-10.583c-8.987-7.468-19.697-13.498-28.737-20.955-10.38-8.563-20.45-17.664-29.814-27.365 2.536-.772 5.147-1.283 7.782-1.634 6.92 8.19 14.555 15.657 22.633 22.775 8.494 7.484 18.19 16.328 28.502 21.41a56.257 56.257 0 0 1-.367 5.77z" fill="#fff"/></svg>