<svg xmlns="http://www.w3.org/2000/svg" width="400" height="400" viewBox="0 0 418.497 418.497"><path d="M246.92 187.032c-6.793-.003-12.844-4.33-15.057-10.77a14.997 14.997 0 0 0-14.188-10.13h-.006l-9.393.005a14.998 14.998 0 0 0-14.512 18.768c6.283 24.208 28.137 41.12 53.15 41.127 35.138-.01 63.726-28.604 63.73-63.748-.005-41.243-33.56-74.797-74.806-74.797-48.868.002-88.626 39.76-88.626 88.63.007 58.39 47.517 105.9 105.912 105.906 70.303-.006 127.502-57.207 127.508-127.51 0-41.27-16.072-80.073-45.256-109.256C306.198 16.07 267.398 0 226.125 0 122.315 0 37.86 84.455 37.86 188.264c0 61.557 23.972 119.43 67.5 162.956 40.767 40.77 94.846 64.655 152.275 67.262a14.994 14.994 0 0 0 11.043-4.14 15.002 15.002 0 0 0 4.637-10.844v-9.013c0-8.005-6.285-14.6-14.28-14.982C156.88 374.608 76.86 290.607 76.86 188.265 76.86 105.96 143.82 39 226.126 39c30.854 0 59.86 12.016 81.678 33.833 21.818 21.818 33.834 50.827 33.834 81.68-.002 48.8-39.707 88.506-88.506 88.512-36.893-.006-66.908-30.02-66.914-66.91 0-27.362 22.263-49.625 49.626-49.627 19.738 0 35.8 16.06 35.805 35.797-.003 13.643-11.1 24.744-24.73 24.747z" fill="#fff"/></svg>